<svg width="123" height="123" viewBox="0 0 123 123" fill="none" xmlns="http://www.w3.org/2000/svg">
<g clip-path="url(#clip0_313_844)">
<path d="M76.1102 33.8672L62.6032 23.3753C60.7087 21.9036 58.118 21.7017 56.0181 22.8638L31.4439 36.4628C29.344 37.6248 28.1391 39.9271 28.3799 42.314L30.0959 59.3309C30.2143 60.4928 30.6659 61.5938 31.4007 62.5004L59.6786 97.4597C61.5082 99.7251 64.6993 100.349 67.2481 98.9386L89.9376 86.3825C92.4863 84.9721 93.6525 81.9369 92.7089 79.1846L78.1068 36.6573C77.7248 35.5521 77.0318 34.5847 76.1102 33.8672ZM68.7563 50.1018L60.8817 54.4596L71.0497 72.8338L65.7999 75.7389L55.6319 57.3647L47.7572 61.7224L44.8521 56.4727L52.7267 52.1149L48.369 44.2403L53.6188 41.3351L57.9765 49.2098L65.8512 44.8521L68.7563 50.1018Z" fill="black"/>
</g>
<defs>
<clipPath id="clip0_313_844">
<rect width="90" height="90" fill="white" transform="translate(0 43.5772) rotate(-28.9595)"/>
</clipPath>
</defs>
</svg>
