<svg width="58" height="59" viewBox="0 0 58 59" fill="none" xmlns="http://www.w3.org/2000/svg">
<path d="M34.2357 7C34.2357 7 29.0674 9.67677 24.097 11.1035C19.1267 12.5303 13.2357 13.0311 13.2357 13.0311C13.2357 13.0311 12.8805 20.7226 11.762 25.4091C10.6434 30.0955 8 35.5311 8 35.5311C8 35.5311 12.8805 39.298 16.2955 42.6944C19.7104 46.0909 23.7643 52 23.7643 52C23.7643 52 29.6797 49.3338 34.0214 48.0859C38.361 46.8401 44.7643 45.9689 44.7643 45.9689C44.7643 45.9689 45.5379 37.4861 46.4095 33.976C47.2811 30.4659 50 23.4689 50 23.4689C50 23.4689 45.8053 20.4554 41.7984 16.154C37.7915 11.8527 34.2357 7 34.2357 7Z" stroke="black" stroke-width="4.5" stroke-miterlimit="10" stroke-linejoin="round"/>
<path d="M32.0253 16C32.0253 16 29.0688 17.6144 26.2297 18.4791C23.3906 19.3438 20.0253 19.6534 20.0253 19.6534C20.0253 19.6534 19.8108 24.2665 19.1632 27.0773C18.5157 29.8881 17 33.1523 17 33.1523C17 33.1523 19.7804 35.4013 21.7251 37.4337C23.6698 39.4661 25.9747 43 25.9747 43C25.9747 43 29.3582 41.39 31.8371 40.6359C34.318 39.8818 37.9747 39.3466 37.9747 39.3466C37.9747 39.3466 38.43 34.2602 38.9339 32.1527C39.4378 30.0473 41 25.8455 41 25.8455C41 25.8455 38.6101 24.0454 36.3275 21.4734C34.0449 18.9015 32.0253 16 32.0253 16Z" stroke="black" stroke-width="4.5" stroke-miterlimit="10" stroke-linejoin="round"/>
<path d="M3 37L55 22" stroke="black" stroke-width="4.5" stroke-miterlimit="10" stroke-linecap="round" stroke-linejoin="round"/>
<path d="M48 49L10 10" stroke="black" stroke-width="4.5" stroke-miterlimit="10" stroke-linecap="round" stroke-linejoin="round"/>
<path d="M36 3L22 56" stroke="black" stroke-width="4.5" stroke-miterlimit="10" stroke-linecap="round" stroke-linejoin="round"/>
</svg>
