<svg width="57" height="52" viewBox="0 0 57 52" fill="none" xmlns="http://www.w3.org/2000/svg">
<path d="M51.3 22.5333C51.3 12.0033 41.0913 5.20001 28.5 5.20001C15.9087 5.20001 5.7 12.0033 5.7 22.5333C5.7 28.3175 8.037 32.5104 11.8313 35.3305L11.5311 36.6999C10.7787 40.1319 13.6553 43.3333 17.4914 43.3333H20.9C20.9 43.8637 20.9 44.4635 20.9 45.0667C20.9 46.8 24.7 48.5333 28.5 48.5333C32.3 48.5333 36.1 46.8 36.1 45.0667C36.1 44.4635 36.1 43.8637 36.1 43.3333H39.5181C43.3542 43.3333 46.2327 40.1319 45.4803 36.6981L45.1782 35.3236C48.9649 32.5035 51.3 28.314 51.3 22.5333ZM21.85 38.1333C19.2261 38.1333 17.1 36.1937 17.1 33.8C17.1 31.4063 19.2261 29.4667 21.85 29.4667C24.4739 29.4667 26.6 31.4063 26.6 33.8C26.6 36.1937 24.4739 38.1333 21.85 38.1333ZM28.5 43.3333C27.4512 43.3333 26.6 42.5568 26.6 41.6C26.6 40.6432 28.5 38.1333 28.5 38.1333C28.5 38.1333 30.4 40.6432 30.4 41.6C30.4 42.5568 29.5488 43.3333 28.5 43.3333ZM35.15 38.1333C32.5261 38.1333 30.4 36.1937 30.4 33.8C30.4 31.4063 32.5261 29.4667 35.15 29.4667C37.7739 29.4667 39.9 31.4063 39.9 33.8C39.9 36.1937 37.7739 38.1333 35.15 38.1333Z" fill="black"/>
</svg>
