<svg width="90" height="90" viewBox="0 0 90 90" fill="none" xmlns="http://www.w3.org/2000/svg">
<path d="M45 48C44.232 48 43.464 47.706 42.879 47.121C41.706 45.948 41.706 44.052 42.879 42.879L54.135 31.623C56.217 29.541 58.782 28.884 61.044 28.305C62.781 27.861 64.281 27.477 65.199 26.559C66.036 25.722 66.324 24.549 66.729 22.698C67.185 20.604 67.758 18 69.879 15.879L75.879 9.87899C77.052 8.70599 78.948 8.70599 80.121 9.87899C80.706 10.464 81 11.232 81 12C81 12.768 81.15 16.311 79.842 17.109C78.795 17.748 75.108 20.163 74.304 20.931C73.5 21.699 73.188 22.278 72.75 24.156C72.264 26.244 71.688 28.848 69.555 30.954C67.458 33.021 64.89 33.66 62.622 34.224C60.882 34.656 59.382 35.028 58.455 35.94L47.121 47.118C46.533 47.703 45.768 48 45 48Z" fill="black"/>
<path d="M52.629 37.326C50.877 35.556 47.985 35.556 46.158 37.326L43.581 39.951C35.055 37.026 21.033 44.676 9.399 53.772C8.865 54.312 8.865 55.158 9.399 55.695L13.131 59.466C13.587 59.928 14.196 60.006 14.73 59.697L18.612 57.621C19.296 57.237 19.983 58.005 19.677 58.698L17.544 62.544C17.238 63.084 17.391 63.699 17.772 64.161L21.654 68.085C22.11 68.547 22.872 68.625 23.406 68.238L30.792 62.7C31.476 62.16 32.391 63.084 31.857 63.777L26.907 70.548C26.223 71.472 26.298 72.78 27.135 73.548L29.037 75.471C29.343 75.78 29.799 75.933 30.255 75.855L31.092 75.702C31.626 75.624 32.082 76.086 32.007 76.626L31.854 77.472C31.779 77.934 31.929 78.396 32.235 78.702L33.834 80.319C34.749 81.243 36.27 81.243 37.107 80.241C44.994 69.249 52.938 54.954 50.046 46.494L52.623 43.869C54.456 42.021 54.456 39.096 52.629 37.326Z" fill="black"/>
</svg>
