<svg width="78" height="79" viewBox="0 0 78 79" fill="none" xmlns="http://www.w3.org/2000/svg">
<g clip-path="url(#clip0_313_847)">
<path d="M10.3666 44.9441C10.3666 44.9441 15.271 46.1066 18.7912 48.6539C22.3115 51.2012 34.0985 59.7305 37.7486 62.3717C42.3246 65.683 46.1732 66.0815 46.1732 66.0815" stroke="black" stroke-width="6" stroke-miterlimit="10" stroke-linecap="round" stroke-linejoin="round"/>
<path d="M42.607 58.7281C51.5448 46.3764 55.3634 34.2031 56.0554 32.3532C57.3027 29.0176 57.4785 24.1476 51.7679 20.0153C50.8259 19.3336 48.6472 17.7572 46.6873 16.3389C41.1737 12.3492 31.6408 16.0968 31.6408 16.0968C31.3101 16.2345 30.9975 16.4331 30.7674 16.7511C30.1418 17.6157 30.2873 18.7901 31.0923 19.3726C31.3285 19.5435 31.5962 19.625 31.8727 19.6605L39.1921 20.4609L40.9752 24.1376C40.9752 24.1376 28.258 29.4303 19.2748 41.8446L28.0244 48.1759L29.1578 46.6096C29.7834 45.7451 30.9445 45.5161 31.7494 46.0986L36.1242 49.2642C36.9291 49.8467 37.0747 51.0211 36.4491 51.8857L35.3157 53.452L42.607 58.7281Z" fill="black"/>
</g>
<defs>
<clipPath id="clip0_313_847">
<rect width="54" height="58" fill="white" transform="translate(34.0015) rotate(35.8901)"/>
</clipPath>
</defs>
</svg>
